# xmcd CD database file
#
# Track frame offsets:
#	150
#	19050
#	30179
#	43759
#	61632
#	81057
#	98448
#
# Disc length: 1535 seconds
#
# Revision: 0
# Processed by: cddbd v1.5.2PL0 Copyright (c) Steve Scherf et al.
# Submitted via: CDex 1.78
#
DISCID=3e05fd07
DTITLE=Rapp, Mark and Derek Lee Bronston - Song Project, The
DYEAR=2010
DGENRE=Jazz
TTITLE0=Packt Like Sardines In A Crushed Tin Box
TTITLE1=Aoife
TTITLE2=In The Presence Of...
TTITLE3=Mad World
TTITLE4=Waiting
TTITLE5=You Shook Me All Night Long
TTITLE6=Gumbo
EXTD=YEAR: 2010
EXTT0=
EXTT1=
EXTT2=
EXTT3=
EXTT4=
EXTT5=
EXTT6=
PLAYORDER=
